<mxfile host="app.diagrams.net" modified="2023-10-05T00:23:44.127Z" agent="Mozilla/5.0 (Windows NT 10.0; Win64; x64; rv:109.0) Gecko/20100101 Firefox/118.0" etag="RvZGs9G1oZGEKBlwF34B" version="22.0.2" type="device">
  <diagram name="Page-1" id="w5-YIrEdo6FdjHaFf-6D">
    <mxGraphModel dx="1434" dy="746" grid="1" gridSize="10" guides="1" tooltips="1" connect="1" arrows="1" fold="1" page="1" pageScale="1" pageWidth="850" pageHeight="1100" math="0" shadow="0">
      <root>
        <mxCell id="0" />
        <mxCell id="1" parent="0" />
        <mxCell id="BiGxnceefmKETJ_hU3SQ-17" style="edgeStyle=orthogonalEdgeStyle;rounded=0;orthogonalLoop=1;jettySize=auto;html=1;exitX=0;exitY=1;exitDx=0;exitDy=0;entryX=0.5;entryY=0;entryDx=0;entryDy=0;" edge="1" parent="1" source="BiGxnceefmKETJ_hU3SQ-2" target="BiGxnceefmKETJ_hU3SQ-6">
          <mxGeometry relative="1" as="geometry" />
        </mxCell>
        <mxCell id="BiGxnceefmKETJ_hU3SQ-19" style="edgeStyle=orthogonalEdgeStyle;rounded=0;orthogonalLoop=1;jettySize=auto;html=1;exitX=0.25;exitY=1;exitDx=0;exitDy=0;entryX=0.25;entryY=0;entryDx=0;entryDy=0;" edge="1" parent="1" source="BiGxnceefmKETJ_hU3SQ-2" target="BiGxnceefmKETJ_hU3SQ-13">
          <mxGeometry relative="1" as="geometry" />
        </mxCell>
        <mxCell id="BiGxnceefmKETJ_hU3SQ-30" style="edgeStyle=orthogonalEdgeStyle;rounded=0;orthogonalLoop=1;jettySize=auto;html=1;exitX=0.75;exitY=1;exitDx=0;exitDy=0;entryX=0.25;entryY=0;entryDx=0;entryDy=0;" edge="1" parent="1" source="BiGxnceefmKETJ_hU3SQ-2" target="BiGxnceefmKETJ_hU3SQ-25">
          <mxGeometry relative="1" as="geometry" />
        </mxCell>
        <mxCell id="BiGxnceefmKETJ_hU3SQ-2" value="&lt;div&gt;Iphone&lt;/div&gt;" style="swimlane;whiteSpace=wrap;html=1;" vertex="1" parent="1">
          <mxGeometry x="325" y="40" width="200" height="50" as="geometry" />
        </mxCell>
        <mxCell id="BiGxnceefmKETJ_hU3SQ-3" value="" style="whiteSpace=wrap;html=1;" vertex="1" parent="BiGxnceefmKETJ_hU3SQ-2">
          <mxGeometry x="10" y="30" width="180" height="10" as="geometry" />
        </mxCell>
        <mxCell id="BiGxnceefmKETJ_hU3SQ-12" style="edgeStyle=orthogonalEdgeStyle;rounded=0;orthogonalLoop=1;jettySize=auto;html=1;exitX=1;exitY=0.5;exitDx=0;exitDy=0;entryX=0.5;entryY=0;entryDx=0;entryDy=0;" edge="1" parent="1" source="BiGxnceefmKETJ_hU3SQ-6" target="BiGxnceefmKETJ_hU3SQ-10">
          <mxGeometry relative="1" as="geometry" />
        </mxCell>
        <mxCell id="BiGxnceefmKETJ_hU3SQ-6" value="Aparelho Celular" style="swimlane;whiteSpace=wrap;html=1;" vertex="1" parent="1">
          <mxGeometry x="20" y="140" width="200" height="170" as="geometry" />
        </mxCell>
        <mxCell id="BiGxnceefmKETJ_hU3SQ-7" value="&lt;div&gt;&lt;br&gt;&lt;/div&gt;&lt;div&gt;+Ligar (): void&lt;/div&gt;&lt;div&gt;+atender(): void&lt;/div&gt;&lt;div&gt;+colocaremespera(): void&lt;/div&gt;&lt;div&gt;+viva voz(): void&lt;/div&gt;&lt;div&gt;+iniciarCorreioVoz(): void&lt;/div&gt;&lt;div&gt;+sileciar(): void&lt;/div&gt;&lt;div&gt;+adicionarchamada(): void&lt;/div&gt;&lt;div&gt;&lt;br&gt;&lt;/div&gt;" style="rounded=0;whiteSpace=wrap;html=1;" vertex="1" parent="BiGxnceefmKETJ_hU3SQ-6">
          <mxGeometry x="10" y="30" width="180" height="130" as="geometry" />
        </mxCell>
        <mxCell id="BiGxnceefmKETJ_hU3SQ-10" value="&lt;div&gt;Telefone&lt;/div&gt;" style="swimlane;whiteSpace=wrap;html=1;" vertex="1" parent="1">
          <mxGeometry x="50" y="360" width="120" height="60" as="geometry" />
        </mxCell>
        <mxCell id="BiGxnceefmKETJ_hU3SQ-11" value="" style="rounded=0;whiteSpace=wrap;html=1;" vertex="1" parent="BiGxnceefmKETJ_hU3SQ-10">
          <mxGeometry x="15" y="40" width="90" height="10" as="geometry" />
        </mxCell>
        <mxCell id="BiGxnceefmKETJ_hU3SQ-24" style="edgeStyle=orthogonalEdgeStyle;rounded=0;orthogonalLoop=1;jettySize=auto;html=1;exitX=0.5;exitY=1;exitDx=0;exitDy=0;entryX=0.25;entryY=0;entryDx=0;entryDy=0;" edge="1" parent="1" source="BiGxnceefmKETJ_hU3SQ-13" target="BiGxnceefmKETJ_hU3SQ-22">
          <mxGeometry relative="1" as="geometry" />
        </mxCell>
        <mxCell id="BiGxnceefmKETJ_hU3SQ-13" value="Vertical Container" style="swimlane;whiteSpace=wrap;html=1;" vertex="1" parent="1">
          <mxGeometry x="270" y="170" width="200" height="200" as="geometry" />
        </mxCell>
        <mxCell id="BiGxnceefmKETJ_hU3SQ-14" value="+exibirPagina(): void&lt;br&gt;+fecharAbaNavegador(): void&lt;br&gt;+adicionarNovaAba(): void&lt;br&gt;+fecharPagina(): void&lt;br&gt;+atualizarPagina(): void" style="rounded=0;whiteSpace=wrap;html=1;" vertex="1" parent="BiGxnceefmKETJ_hU3SQ-13">
          <mxGeometry x="10" y="30" width="180" height="150" as="geometry" />
        </mxCell>
        <mxCell id="BiGxnceefmKETJ_hU3SQ-22" value="&lt;div&gt;Safari&lt;/div&gt;" style="swimlane;whiteSpace=wrap;html=1;" vertex="1" parent="1">
          <mxGeometry x="305" y="410" width="120" height="60" as="geometry" />
        </mxCell>
        <mxCell id="BiGxnceefmKETJ_hU3SQ-23" value="" style="rounded=0;whiteSpace=wrap;html=1;" vertex="1" parent="BiGxnceefmKETJ_hU3SQ-22">
          <mxGeometry x="15" y="40" width="90" height="10" as="geometry" />
        </mxCell>
        <mxCell id="BiGxnceefmKETJ_hU3SQ-29" style="edgeStyle=orthogonalEdgeStyle;rounded=0;orthogonalLoop=1;jettySize=auto;html=1;exitX=0.25;exitY=1;exitDx=0;exitDy=0;entryX=0.25;entryY=0;entryDx=0;entryDy=0;" edge="1" parent="1" source="BiGxnceefmKETJ_hU3SQ-25" target="BiGxnceefmKETJ_hU3SQ-27">
          <mxGeometry relative="1" as="geometry" />
        </mxCell>
        <mxCell id="BiGxnceefmKETJ_hU3SQ-25" value="&lt;div&gt;Reprodutor Musical&lt;/div&gt;" style="swimlane;whiteSpace=wrap;html=1;" vertex="1" parent="1">
          <mxGeometry x="560" y="170" width="200" height="200" as="geometry" />
        </mxCell>
        <mxCell id="BiGxnceefmKETJ_hU3SQ-26" value="+toca():&lt;br&gt;+pausar():&lt;br&gt;+parar():&lt;br&gt;+selecionarMusica():&lt;br&gt;+selecionarAlbum():&lt;br&gt;+aumentarVolume():&lt;br&gt;+diminuirVolume():" style="rounded=0;whiteSpace=wrap;html=1;" vertex="1" parent="BiGxnceefmKETJ_hU3SQ-25">
          <mxGeometry x="10" y="30" width="180" height="160" as="geometry" />
        </mxCell>
        <mxCell id="BiGxnceefmKETJ_hU3SQ-27" value="&lt;div&gt;Ipod&lt;/div&gt;" style="swimlane;whiteSpace=wrap;html=1;" vertex="1" parent="1">
          <mxGeometry x="600" y="420" width="120" height="60" as="geometry" />
        </mxCell>
        <mxCell id="BiGxnceefmKETJ_hU3SQ-28" value="" style="rounded=0;whiteSpace=wrap;html=1;" vertex="1" parent="BiGxnceefmKETJ_hU3SQ-27">
          <mxGeometry x="15" y="40" width="90" height="10" as="geometry" />
        </mxCell>
      </root>
    </mxGraphModel>
  </diagram>
</mxfile>
